<svg xmlns="http://www.w3.org/2000/svg" viewBox="0 0 48 46" fill="none">
  <defs>
    <linearGradient id="favGrad" x1="0%" y1="0%" x2="0%" y2="100%">
      <stop offset="0%" stop-color="#0B132B"/>
      <stop offset="55%" stop-color="#0369A1"/>
      <stop offset="100%" stop-color="#0284C7"/>
    </linearGradient>
  </defs>
  <path d="M19 4H10.5C6 4 2.5 8 1.8 13L0.2 27C-0.6 32.5 2.5 36.5 7.5 36.5H16C20.5 36.5 24 32.5 24.8 27.5L26.4 13C27.2 7.5 24 4 19 4Z" stroke="url(#favGrad)" stroke-width="3.6" stroke-linecap="round" stroke-linejoin="round"/>
  <path d="M39.5 12H31C26.5 12 23 16 22.2 21L20.6 35C19.8 40.5 23 44.5 28 44.5H36.5C41 44.5 44.5 40.5 45.3 35.5L46.9 21C47.7 15.5 44.5 12 39.5 12Z" stroke="url(#favGrad)" stroke-width="3.6" stroke-linecap="round" stroke-linejoin="round"/>
</svg>
